<svg data-v-6805eed4="" version="1.0" xmlns="http://www.w3.org/2000/svg" xmlns:xlink="http://www.w3.org/1999/xlink" width="100%" height="100%" viewBox="0 0 340.000000 250.000000" preserveAspectRatio="xMidYMid meet" color-interpolation-filters="sRGB" style="margin: 0;padding:0;">   <g data-v-6805eed4="" fill="#35495e" class="icon-text-wrapper icon-svg-group iconsvg" transform="translate(63.79463195800781,91.70255279541016)"><g class="iconsvg-imagesvg" transform="translate(0,0)"><g><rect fill="#35495e" fill-opacity="0" stroke-width="2" x="0" y="0" width="60.00000000000001" height="66.59489217177043" class="image-rect"></rect> <svg filter="url(#colors9300170036)" x="0" y="0" width="60.00000000000001" height="66.59489217177043" filtersec="colorsf3548775483" class="image-svg-svg primary" style="overflow: visible;"><svg xmlns="http://www.w3.org/2000/svg" xmlns:xlink="http://www.w3.org/1999/xlink" version="1.1" x="0px" y="0px" viewBox="14.769977569580078 19.97736167907715 54.10013198852539 60.04625701904297" enable-background="new 0 0 100 100" xml:space="preserve"><g><path fill-rule="evenodd" clip-rule="evenodd" d="M63.228,20.032c-2.029,0.299-3.835,1.948-4.009,4.025   c-0.098,1.145-0.065,2.275,0.079,3.409c0.089,0.721,0.208,1.433,0.324,2.211c-0.292-0.154-0.522-0.284-0.761-0.393   c-0.389-0.179-0.758-0.146-1.109,0.117c-0.349,0.255-0.239,0.725-0.438,0.992c-0.217,0.295-0.553,0.498-0.587,0.931   c0,0-0.004,0.013,0,0.029c0.024,0.17-0.059,0.267-0.198,0.373c-0.65,0.494-0.6,1.32,0.097,1.745c0.3,0.183,0.611,0.344,0.923,0.507   c0.174,0.089,0.205,0.182,0.103,0.364c-0.567,1.016-1.125,2.041-1.678,3.065c-0.097,0.178-0.188,0.207-0.366,0.105   c-0.448-0.263-0.906-0.509-1.365-0.757c-1.517-0.809-3.133-0.319-3.957,1.187c-1.463,2.677-2.93,5.35-4.394,8.026   c-0.654,1.19-0.36,2.68,0.725,3.523c0.243,0.187,0.263,0.312,0.124,0.57c-2.257,4.103-4.504,8.208-6.754,12.311   c-1.486,2.713-2.941,5.442-4.478,8.127c-1.472,2.575-4.706,4.122-7.569,3.697c-3.117-0.461-5.302-2.203-6.604-5.034   c-0.712-1.55-0.878-3.203-0.097-4.774c0.96-1.923,2.037-3.786,3.088-5.722c0.147,0.163,0.267,0.296,0.391,0.429   c1.16,1.268,2.318,2.532,3.483,3.795c0.449,0.49,0.965,0.616,1.421,0.352c0.454-0.258,0.595-0.712,0.417-1.365   c-0.66-2.421-1.318-4.847-1.984-7.272c-0.624-2.288-1.257-4.576-1.885-6.864c-0.126-0.458-0.41-0.733-0.879-0.79   c-0.472-0.052-0.814,0.155-1.041,0.563c-0.061,0.114-0.127,0.219-0.188,0.333c-1.869,3.418-3.738,6.827-5.608,10.245   c-0.812,1.479-1.583,2.98-2.438,4.431c-1.575,2.676-1.577,5.426-0.454,8.224c1.132,2.831,3.098,4.993,5.568,6.726   c3.258,2.289,6.835,3.095,10.731,2.183c4.438-1.044,7.653-3.701,9.827-7.669c3.465-6.321,6.929-12.646,10.385-18.976   c0.146-0.263,0.261-0.34,0.577-0.235c1.368,0.45,2.676-0.069,3.347-1.292c1.474-2.685,2.946-5.374,4.416-8.062   c0.759-1.39,0.288-3.082-1.085-3.88c-0.461-0.267-0.927-0.526-1.407-0.766c-0.21-0.105-0.254-0.194-0.135-0.409   c0.564-1.008,1.12-2.021,1.665-3.032c0.107-0.207,0.208-0.215,0.388-0.106c0.3,0.183,0.607,0.356,0.924,0.506   c0.712,0.34,1.439-0.073,1.506-0.85c0.014-0.162,0.022-0.288,0.186-0.381c0.317-0.182,0.463-0.485,0.459-0.85   c-0.001-0.162,0.057-0.235,0.183-0.333c0.69-0.506,0.625-1.369-0.118-1.793c-0.229-0.13-0.463-0.26-0.701-0.389   c0.13-0.146,0.288-0.166,0.43-0.223c1.417-0.592,2.794-1.252,4.063-2.13c1.268-0.879,2.002-2.062,2.091-3.617   C69.038,22.057,66.325,19.574,63.228,20.032z M50.304,51.981c-1.425,2.588-2.836,5.179-4.254,7.767   c-2.073,3.786-4.138,7.577-6.228,11.355c-1.925,3.478-4.78,5.778-8.71,6.617c-2.63,0.563-5.157,0.202-7.5-1.13   c-3.059-1.742-5.401-4.126-6.457-7.573c-0.564-1.847-0.395-3.612,0.567-5.333c2.322-4.163,4.588-8.354,6.876-12.533   c0.067-0.121,0.137-0.243,0.259-0.445c0.706,2.587,1.389,5.09,2.073,7.588c-0.028,0.021-0.054,0.041-0.083,0.061   c-0.249-0.264-0.502-0.523-0.75-0.79c-0.47-0.514-0.923-1.032-1.612-1.299c-0.567-0.223-1.129-0.085-1.461,0.514   c-1.164,2.118-2.324,4.236-3.482,6.362c-0.249,0.458-0.443,0.939-0.575,1.446c-0.579,2.223-0.253,4.353,0.903,6.301   c2.031,3.425,5.003,5.426,9.079,5.361c3.745-0.061,6.677-1.733,8.511-5.025c3.732-6.689,7.378-13.428,11.053-20.149   c0.15-0.28,0.263-0.368,0.554-0.179c0.355,0.227,0.727,0.434,1.11,0.608C50.446,51.633,50.429,51.75,50.304,51.981z M54.619,49.729   c-0.178,0.268-0.316,0.563-0.465,0.847c-0.13,0.247-0.355,0.299-0.59,0.324c-0.221-0.028-0.413-0.105-0.601-0.211   c-1.622-0.887-3.25-1.773-4.874-2.66c-0.542-0.296-0.646-0.64-0.334-1.174c0.191-0.324,0.266-0.851,0.589-0.911   c0.278-0.058,0.636,0.292,0.956,0.465c1.723,0.943,3.44,1.895,5.171,2.826C54.728,49.374,54.791,49.479,54.619,49.729z    M56.589,46.139c-0.243,0.393-0.462,0.802-0.669,1.214c-0.111,0.227-0.224,0.219-0.423,0.11c-1.99-1.093-3.982-2.187-5.979-3.272   c-0.195-0.105-0.217-0.191-0.108-0.377c0.251-0.425,0.474-0.863,0.713-1.292c0.041-0.073,0.051-0.203,0.193-0.175   c0.072,0.041,0.147,0.082,0.222,0.122c1.972,1.077,3.938,2.158,5.91,3.223C56.667,45.811,56.739,45.899,56.589,46.139z    M58.243,41.295c0.291,0.162,0.457,0.409,0.496,0.741c0.016,0.133-0.047,0.246-0.105,0.36c-0.257,0.466-0.518,0.932-0.769,1.405   c-0.094,0.174-0.166,0.251-0.383,0.13c-1.993-1.102-3.991-2.195-5.991-3.284c-0.203-0.105-0.251-0.19-0.126-0.405   c0.281-0.47,0.526-0.96,0.798-1.434c0.219-0.384,0.622-0.502,1.015-0.292C54.87,39.436,56.556,40.368,58.243,41.295z    M66.599,25.964c-0.221,0.543-0.64,0.887-1.094,1.199c-1.116,0.773-2.345,1.324-3.588,1.851c-0.131,0.057-0.277,0.154-0.324-0.122   c-0.25-1.486-0.469-2.968-0.368-4.487c0.091-1.356,1.391-2.368,2.721-2.376C65.971,22.012,67.366,24.094,66.599,25.964z"></path></g></svg></svg> <defs><filter id="colors9300170036"><feColorMatrix type="matrix" values="0 0 0 0 0.25390625  0 0 0 0 0.71875  0 0 0 0 0.51171875  0 0 0 1 0" class="icon-fecolormatrix"></feColorMatrix></filter> <filter id="colorsf3548775483"><feColorMatrix type="matrix" values="0 0 0 0 0.99609375  0 0 0 0 0.99609375  0 0 0 0 0.99609375  0 0 0 1 0" class="icon-fecolormatrix"></feColorMatrix></filter> <filter id="colorsb347410124"><feColorMatrix type="matrix" values="0 0 0 0 0  0 0 0 0 0  0 0 0 0 0  0 0 0 1 0" class="icon-fecolormatrix"></feColorMatrix></filter></defs></g></g> <g transform="translate(67,12.195186614990234)"><g data-gra="path-name" fill-rule="" class="tp-name iconsvg-namesvg"><g transform="scale(1)"><g><path d="M3.76 4.32Q2.9 4.32 2.28 3.71 1.66 3.1 1.66 2.21L1.66 2.21 1.66-19.67 21-19.67 20.14-16.93 5.98-16.93 5.98 1.58 21.5 1.58 20.61 4.32 3.76 4.32ZM24.82 4.32L24.82-19.67 29.1-19.67 29.1 1.58 39.01 1.58 39.01-19.67 43.3-19.67 43.3 2.21Q43.3 3.07 42.69 3.69 42.08 4.32 41.22 4.32L41.22 4.32 24.82 4.32ZM46.62 4.32L46.62 1.58 61.03 1.58 61.03-6.39 48.69-6.39Q47.84-6.39 47.23-7.01 46.62-7.64 46.62-8.49L46.62-8.49 46.62-17.6Q46.62-18.45 47.23-19.06 47.84-19.67 48.69-19.67L48.69-19.67 65.68-19.67 64.79-16.93 50.91-16.93 50.91-9.13 63.25-9.13Q64.1-9.13 64.73-8.52 65.35-7.91 65.35-7.05L65.35-7.05 65.35 2.21Q65.35 3.1 64.74 3.71 64.13 4.32 63.25 4.32L63.25 4.32 46.62 4.32ZM78.79 4.26L78.79-16.93 69-16.93 69-19.67 92.9-19.67 92.02-16.93 83.11-16.93 83.11 4.26 78.79 4.26ZM98.3 4.32Q97.44 4.32 96.83 3.71 96.22 3.1 96.22 2.21L96.22 2.21 96.22-17.6Q96.22-18.45 96.83-19.06 97.44-19.67 98.3-19.67L98.3-19.67 113.85-19.67Q114.7-19.67 115.31-19.06 115.92-18.45 115.92-17.6L115.92-17.6 115.92 2.21Q115.92 3.1 115.31 3.71 114.7 4.32 113.85 4.32L113.85 4.32 98.3 4.32ZM100.51 1.58L111.63 1.58 111.63-16.93 100.51-16.93 100.51 1.58ZM130.59 3.65L123.53-15.47 123.53 4.32 119.24 4.32 119.24-19.67 126.27-19.67 133.16-1.05 140.05-19.67 147.07-19.67 147.07 4.32 142.79 4.32 142.79-15.47 135.73 3.65 130.59 3.65Z" transform="translate(-1.6600000858306885, 19.670000076293945)"></path></g> <!----> <!----> <!----> <!----> <!----> <!----> <g data-gra="path-name-1" fill="#35495e" transform="translate(0,26.989999771118164)"><g transform="scale(0.99182)"><path d="M1.06 2.76L1.06-12.58 3.82-12.58 3.82-5.86 11.08-5.86 11.08-12.58 13.82-12.58 13.82 2.76 11.08 2.76 11.08-4.11 3.82-4.11 3.82 2.76 1.06 2.76ZM17.28 2.76Q16.73 2.76 16.34 2.37 15.95 1.98 15.95 1.42L15.95 1.42 15.95-11.26Q15.95-11.81 16.34-12.2 16.73-12.58 17.28-12.58L17.28-12.58 27.22-12.58Q27.77-12.58 28.16-12.2 28.55-11.81 28.55-11.26L28.55-11.26 28.55 1.42Q28.55 1.98 28.16 2.37 27.77 2.76 27.22 2.76L27.22 2.76 17.28 2.76ZM18.69 1.01L25.81 1.01 25.81-10.83 18.69-10.83 18.69 1.01ZM32 2.76Q31.45 2.76 31.06 2.37 30.67 1.98 30.67 1.42L30.67 1.42 30.67-11.26Q30.67-11.81 31.06-12.2 31.45-12.58 32-12.58L32-12.58 41.95-12.58Q42.5-12.58 42.89-12.2 43.28-11.81 43.28-11.26L43.28-11.26 43.28 1.42Q43.28 1.98 42.89 2.37 42.5 2.76 41.95 2.76L41.95 2.76 32 2.76ZM33.42 1.01L40.53 1.01 40.53-10.83 33.42-10.83 33.42 1.01ZM45.4 2.76L45.4-12.58 48.16-12.58 48.16-5.75 54.43-12.58 57.58-12.58 52.59-7.15 57.99 2.76 55.12 2.76 50.78-5.19 48.16-2.32 48.16 2.76 45.4 2.76ZM61.45 2.76Q60.91 2.76 60.51 2.37 60.11 1.98 60.11 1.42L60.11 1.42 60.11-12.58 62.87-12.58 62.87 1.01 69.4 1.01 68.84 2.76 61.45 2.76ZM72.85 2.76Q72.31 2.76 71.92 2.37 71.53 1.98 71.53 1.42L71.53 1.42 71.53-11.26Q71.53-11.81 71.92-12.2 72.31-12.58 72.85-12.58L72.85-12.58 82.8-12.58Q83.35-12.58 83.74-12.2 84.13-11.81 84.13-11.26L84.13-11.26 84.13 1.42Q84.13 1.98 83.74 2.37 83.35 2.76 82.8 2.76L82.8 2.76 72.85 2.76ZM74.27 1.01L81.39 1.01 81.39-10.83 74.27-10.83 74.27 1.01ZM99.63 2.76L98.01-1.19 90.75-1.19 89.12 2.76 86.25 2.76 92.55-12.58 96.2-12.58 102.5 2.76 99.63 2.76ZM91.46-2.94L97.3-2.94 94.38-10.04 91.46-2.94ZM104.63 2.76L104.63-12.58 117.92-12.58 117.92-0.41 116.73 2.76 104.63 2.76ZM107.37 1.01L114.64 1.01 115.17-0.41 115.17-10.83 107.37-10.83 107.37 1.01ZM121.39 2.76Q120.84 2.76 120.44 2.37 120.04 1.98 120.04 1.42L120.04 1.42 120.04-12.58 132.41-12.58 131.87-10.83 122.8-10.83 122.8-5.86 132.03-5.86 131.46-4.11 122.8-4.11 122.8 1.01 132.73 1.01 132.17 2.76 121.39 2.76ZM144.68 2.76L140.45-4.11 137.62-4.11 137.62 2.76 134.86 2.76 134.86-12.58 147.44-12.58 147.44-5.43Q147.44-4.89 147.04-4.5 146.65-4.11 146.1-4.11L146.1-4.11 143.44-4.11 147.67 2.76 144.68 2.76ZM137.62-5.86L144.68-5.86 144.68-10.83 137.62-10.83 137.62-5.86Z" transform="translate(-1.059999942779541, 12.579999923706055)"></path></g></g></g></g> <!----></g></g><defs v-gra="od"></defs></svg>